<svg width="543" height="333" viewBox="0 0 543 333" fill="none" xmlns="http://www.w3.org/2000/svg">
<path d="M52.68 62.93H91.435V77.42H52.68V62.93ZM54.06 96.05H97.875V111H35.545V30.5H96.38V45.45H54.06V96.05ZM129.841 111.92C124.551 111.92 119.453 111.307 114.546 110.08C109.716 108.777 105.883 107.167 103.046 105.25L109.026 92.37C111.863 94.1333 115.198 95.59 119.031 96.74C122.941 97.8133 126.775 98.35 130.531 98.35C134.671 98.35 137.585 97.8517 139.271 96.855C141.035 95.8583 141.916 94.4783 141.916 92.715C141.916 91.2583 141.226 90.185 139.846 89.495C138.543 88.7283 136.78 88.1533 134.556 87.77C132.333 87.3867 129.88 87.0033 127.196 86.62C124.59 86.2367 121.945 85.7383 119.261 85.125C116.578 84.435 114.125 83.4383 111.901 82.135C109.678 80.8317 107.876 79.0683 106.496 76.845C105.193 74.6217 104.541 71.7467 104.541 68.22C104.541 64.31 105.653 60.86 107.876 57.87C110.176 54.88 113.473 52.5417 117.766 50.855C122.06 49.0917 127.196 48.21 133.176 48.21C137.393 48.21 141.686 48.67 146.056 49.59C150.426 50.51 154.068 51.8517 156.981 53.615L151.001 66.38C148.011 64.6167 144.983 63.4283 141.916 62.815C138.926 62.125 136.013 61.78 133.176 61.78C129.19 61.78 126.276 62.3167 124.436 63.39C122.596 64.4633 121.676 65.8433 121.676 67.53C121.676 69.0633 122.328 70.2133 123.631 70.98C125.011 71.7467 126.813 72.36 129.036 72.82C131.26 73.28 133.675 73.7017 136.281 74.085C138.965 74.3917 141.648 74.89 144.331 75.58C147.015 76.27 149.43 77.2667 151.576 78.57C153.8 79.7967 155.601 81.5217 156.981 83.745C158.361 85.8917 159.051 88.7283 159.051 92.255C159.051 96.0883 157.901 99.5 155.601 102.49C153.301 105.403 149.966 107.703 145.596 109.39C141.303 111.077 136.051 111.92 129.841 111.92ZM193.35 111.92C186.067 111.92 180.393 110.08 176.33 106.4C172.267 102.643 170.235 97.085 170.235 89.725V35.445H188.175V89.495C188.175 92.1017 188.865 94.1333 190.245 95.59C191.625 96.97 193.503 97.66 195.88 97.66C198.717 97.66 201.132 96.8933 203.125 95.36L207.955 108.01C206.115 109.313 203.892 110.31 201.285 111C198.755 111.613 196.11 111.92 193.35 111.92ZM160.69 64.31V50.51H203.585V64.31H160.69ZM253.906 111V98.925L252.756 96.28V74.66C252.756 70.8267 251.567 67.8367 249.191 65.69C246.891 63.5433 243.326 62.47 238.496 62.47C235.199 62.47 231.941 63.0067 228.721 64.08C225.577 65.0767 222.894 66.4567 220.671 68.22L214.231 55.685C217.604 53.3083 221.667 51.4683 226.421 50.165C231.174 48.8617 236.004 48.21 240.911 48.21C250.341 48.21 257.662 50.4333 262.876 54.88C268.089 59.3267 270.696 66.265 270.696 75.695V111H253.906ZM235.046 111.92C230.216 111.92 226.076 111.115 222.626 109.505C219.176 107.818 216.531 105.557 214.691 102.72C212.851 99.8833 211.931 96.7017 211.931 93.175C211.931 89.495 212.812 86.275 214.576 83.515C216.416 80.755 219.291 78.6083 223.201 77.075C227.111 75.465 232.209 74.66 238.496 74.66H254.941V85.125H240.451C236.234 85.125 233.321 85.815 231.711 87.195C230.177 88.575 229.411 90.3 229.411 92.37C229.411 94.67 230.292 96.51 232.056 97.89C233.896 99.1933 236.387 99.845 239.531 99.845C242.521 99.845 245.204 99.155 247.581 97.775C249.957 96.3183 251.682 94.21 252.756 91.45L255.516 99.73C254.212 103.717 251.836 106.745 248.386 108.815C244.936 110.885 240.489 111.92 235.046 111.92ZM364.097 48.21C369.004 48.21 373.336 49.2067 377.092 51.2C380.926 53.1167 383.916 56.1067 386.062 60.17C388.286 64.1567 389.397 69.2933 389.397 75.58V111H371.457V78.34C371.457 73.3567 370.422 69.6767 368.352 67.3C366.282 64.9233 363.369 63.735 359.612 63.735C357.006 63.735 354.667 64.3483 352.597 65.575C350.527 66.725 348.917 68.4883 347.767 70.865C346.617 73.2417 346.042 76.27 346.042 79.95V111H328.102V78.34C328.102 73.3567 327.067 69.6767 324.997 67.3C323.004 64.9233 320.129 63.735 316.372 63.735C313.766 63.735 311.427 64.3483 309.357 65.575C307.287 66.725 305.677 68.4883 304.527 70.865C303.377 73.2417 302.802 76.27 302.802 79.95V111H284.862V49.13H301.997V66.035L298.777 61.09C300.924 56.8733 303.952 53.6917 307.862 51.545C311.849 49.3217 316.372 48.21 321.432 48.21C327.106 48.21 332.051 49.6667 336.267 52.58C340.561 55.4167 343.397 59.7867 344.777 65.69L338.452 63.965C340.522 59.135 343.819 55.3017 348.342 52.465C352.942 49.6283 358.194 48.21 364.097 48.21ZM433.297 111.92C426.703 111.92 420.838 110.54 415.702 107.78C410.642 105.02 406.617 101.263 403.627 96.51C400.713 91.68 399.257 86.1983 399.257 80.065C399.257 73.855 400.713 68.3733 403.627 63.62C406.617 58.79 410.642 55.0333 415.702 52.35C420.838 49.59 426.703 48.21 433.297 48.21C439.813 48.21 445.64 49.59 450.777 52.35C455.913 55.0333 459.938 58.7517 462.852 63.505C465.765 68.2583 467.222 73.7783 467.222 80.065C467.222 86.1983 465.765 91.68 462.852 96.51C459.938 101.263 455.913 105.02 450.777 107.78C445.64 110.54 439.813 111.92 433.297 111.92ZM433.297 97.2C436.287 97.2 438.97 96.51 441.347 95.13C443.723 93.75 445.602 91.795 446.982 89.265C448.362 86.6583 449.052 83.5917 449.052 80.065C449.052 76.4617 448.362 73.395 446.982 70.865C445.602 68.335 443.723 66.38 441.347 65C438.97 63.62 436.287 62.93 433.297 62.93C430.307 62.93 427.623 63.62 425.247 65C422.87 66.38 420.953 68.335 419.497 70.865C418.117 73.395 417.427 76.4617 417.427 80.065C417.427 83.5917 418.117 86.6583 419.497 89.265C420.953 91.795 422.87 93.75 425.247 95.13C427.623 96.51 430.307 97.2 433.297 97.2ZM497.958 111.92C492.668 111.92 487.57 111.307 482.663 110.08C477.833 108.777 474 107.167 471.163 105.25L477.143 92.37C479.98 94.1333 483.315 95.59 487.148 96.74C491.058 97.8133 494.892 98.35 498.648 98.35C502.788 98.35 505.702 97.8517 507.388 96.855C509.152 95.8583 510.033 94.4783 510.033 92.715C510.033 91.2583 509.343 90.185 507.963 89.495C506.66 88.7283 504.897 88.1533 502.673 87.77C500.45 87.3867 497.997 87.0033 495.313 86.62C492.707 86.2367 490.062 85.7383 487.378 85.125C484.695 84.435 482.242 83.4383 480.018 82.135C477.795 80.8317 475.993 79.0683 474.613 76.845C473.31 74.6217 472.658 71.7467 472.658 68.22C472.658 64.31 473.77 60.86 475.993 57.87C478.293 54.88 481.59 52.5417 485.883 50.855C490.177 49.0917 495.313 48.21 501.293 48.21C505.51 48.21 509.803 48.67 514.173 49.59C518.543 50.51 522.185 51.8517 525.098 53.615L519.118 66.38C516.128 64.6167 513.1 63.4283 510.033 62.815C507.043 62.125 504.13 61.78 501.293 61.78C497.307 61.78 494.393 62.3167 492.553 63.39C490.713 64.4633 489.793 65.8433 489.793 67.53C489.793 69.0633 490.445 70.2133 491.748 70.98C493.128 71.7467 494.93 72.36 497.153 72.82C499.377 73.28 501.792 73.7017 504.398 74.085C507.082 74.3917 509.765 74.89 512.448 75.58C515.132 76.27 517.547 77.2667 519.693 78.57C521.917 79.7967 523.718 81.5217 525.098 83.745C526.478 85.8917 527.168 88.7283 527.168 92.255C527.168 96.0883 526.018 99.5 523.718 102.49C521.418 105.403 518.083 107.703 513.713 109.39C509.42 111.077 504.168 111.92 497.958 111.92Z" fill="#02225B"/>
<path d="M269.16 182V173.6L268.36 171.76V156.72C268.36 154.053 267.533 151.973 265.88 150.48C264.28 148.987 261.8 148.24 258.44 148.24C256.147 148.24 253.88 148.613 251.64 149.36C249.453 150.053 247.587 151.013 246.04 152.24L241.56 143.52C243.907 141.867 246.733 140.587 250.04 139.68C253.347 138.773 256.707 138.32 260.12 138.32C266.68 138.32 271.773 139.867 275.4 142.96C279.027 146.053 280.84 150.88 280.84 157.44V182H269.16ZM256.04 182.64C252.68 182.64 249.8 182.08 247.4 180.96C245 179.787 243.16 178.213 241.88 176.24C240.6 174.267 239.96 172.053 239.96 169.6C239.96 167.04 240.573 164.8 241.8 162.88C243.08 160.96 245.08 159.467 247.8 158.4C250.52 157.28 254.067 156.72 258.44 156.72H269.88V164H259.8C256.867 164 254.84 164.48 253.72 165.44C252.653 166.4 252.12 167.6 252.12 169.04C252.12 170.64 252.733 171.92 253.96 172.88C255.24 173.787 256.973 174.24 259.16 174.24C261.24 174.24 263.107 173.76 264.76 172.8C266.413 171.787 267.613 170.32 268.36 168.4L270.28 174.16C269.373 176.933 267.72 179.04 265.32 180.48C262.92 181.92 259.827 182.64 256.04 182.64ZM290.695 182V122.64H303.175V182H290.695Z" fill="#02225B"/>
<path d="M313.54 289.44C304.42 289.44 296.2 287.4 288.88 283.32C281.56 279.12 275.74 273.3 271.42 265.86C267.22 258.42 265.12 249.66 265.12 239.58C265.12 229.38 267.22 220.56 271.42 213.12C275.74 205.68 281.56 199.92 288.88 195.84C296.2 191.76 304.42 189.72 313.54 189.72C321.7 189.72 328.84 191.52 334.96 195.12C341.08 198.72 345.82 204.18 349.18 211.5C352.54 218.82 354.22 228.18 354.22 239.58C354.22 250.86 352.6 260.22 349.36 267.66C346.12 274.98 341.44 280.44 335.32 284.04C329.32 287.64 322.06 289.44 313.54 289.44ZM318.4 266.4C322.96 266.4 327.1 265.32 330.82 263.16C334.54 261 337.48 257.94 339.64 253.98C341.92 249.9 343.06 245.1 343.06 239.58C343.06 233.94 341.92 229.14 339.64 225.18C337.48 221.22 334.54 218.16 330.82 216C327.1 213.84 322.96 212.76 318.4 212.76C313.72 212.76 309.52 213.84 305.8 216C302.08 218.16 299.08 221.22 296.8 225.18C294.64 229.14 293.56 233.94 293.56 239.58C293.56 245.1 294.64 249.9 296.8 253.98C299.08 257.94 302.08 261 305.8 263.16C309.52 265.32 313.72 266.4 318.4 266.4ZM343.78 288V268.2L344.32 239.4L342.52 210.78V154.44H370.6V288H343.78ZM393.349 288V191.16H421.429V288H393.349ZM391.009 178.74L415.309 152.82H445.549L412.969 178.74H391.009ZM503.65 288V269.1L501.85 264.96V231.12C501.85 225.12 499.99 220.44 496.27 217.08C492.67 213.72 487.09 212.04 479.53 212.04C474.37 212.04 469.27 212.88 464.23 214.56C459.31 216.12 455.11 218.28 451.63 221.04L441.55 201.42C446.83 197.7 453.19 194.82 460.63 192.78C468.07 190.74 475.63 189.72 483.31 189.72C498.07 189.72 509.53 193.2 517.69 200.16C525.85 207.12 529.93 217.98 529.93 232.74V288H503.65ZM474.13 289.44C466.57 289.44 460.09 288.18 454.69 285.66C449.29 283.02 445.15 279.48 442.27 275.04C439.39 270.6 437.95 265.62 437.95 260.1C437.95 254.34 439.33 249.3 442.09 244.98C444.97 240.66 449.47 237.3 455.59 234.9C461.71 232.38 469.69 231.12 479.53 231.12H505.27V247.5H482.59C475.99 247.5 471.43 248.58 468.91 250.74C466.51 252.9 465.31 255.6 465.31 258.84C465.31 262.44 466.69 265.32 469.45 267.48C472.33 269.52 476.23 270.54 481.15 270.54C485.83 270.54 490.03 269.46 493.75 267.3C497.47 265.02 500.17 261.72 501.85 257.4L506.17 270.36C504.13 276.6 500.41 281.34 495.01 284.58C489.61 287.82 482.65 289.44 474.13 289.44Z" fill="#02225B"/>
<path d="M152.633 128C155.394 128 157.633 130.239 157.633 133V143H198.633C214.649 143 227.633 155.984 227.633 172V279C227.633 282.142 227.131 285.167 226.207 288H253.262C255.049 288 255.939 290.167 254.667 291.423L219.038 326.612C218.259 327.381 217.007 327.381 216.228 326.612L180.599 291.423C179.327 290.167 180.216 288 182.004 288H207.633V183H103.133L62.6328 143H97.6328V133C97.6328 130.239 99.8714 128 102.633 128C105.394 128 107.633 130.239 107.633 133V143H147.633V133C147.633 130.239 149.871 128 152.633 128ZM36.2275 144.388C37.0065 143.619 38.2592 143.619 39.0381 144.388L74.667 179.577C75.9389 180.833 75.0494 183 73.2617 183H47.6328V288H152.133L172.383 308H56.6328C40.6165 308 27.6328 295.016 27.6328 279V183H2.00389C0.216128 183 -0.673341 180.833 0.59862 179.577L36.2275 144.388ZM177 212L114.476 274.677L78 238L92 224L114.476 246.41L163 198L177 212Z" fill="url(#paint0_linear_566_550)"/>
<defs>
<linearGradient id="paint0_linear_566_550" x1="128" y1="164" x2="128" y2="297.5" gradientUnits="userSpaceOnUse">
<stop stop-color="#20BF86"/>
<stop offset="1" stop-color="#02225B"/>
</linearGradient>
</defs>
</svg>
