<svg width="266" height="210" viewBox="0 0 266 210" fill="none" xmlns="http://www.w3.org/2000/svg">
<rect x="30.5103" y="17.5" width="204" height="170" rx="27.5" fill="white" stroke="white" stroke-width="5"/>
<path d="M60.1802 17.5L59.1802 17.5H58.1802H57.1802H56.1802H55.1802H54.1802H53.1802H52.1802H51.1802H50.1802H49.1802H48.1802H47.1802C47.1802 17.5 41.6802 17.5003 40.1802 18.5005C38.6802 19.5007 35.6802 22.5005 35.6802 22.5005L32.1802 26.0005L6.18018 52.5005" stroke="white" stroke-width="5"/>
<mask id="path-3-outside-1_317_1212" maskUnits="userSpaceOnUse" x="-0.989746" y="0" width="267" height="210" fill="black">
<rect fill="white" x="-0.989746" width="267" height="210"/>
<path fill-rule="evenodd" clip-rule="evenodd" d="M107.643 5C104.882 5 102.643 7.23858 102.643 10V20H67.6428L108.143 60H183.643H212.643V89V136V165H187.014C185.226 165 184.337 167.167 185.609 168.423L221.237 203.612C222.016 204.381 223.269 204.381 224.048 203.612L259.677 168.423C260.949 167.167 260.06 165 258.272 165H232.643V60V40C232.643 28.9543 223.689 20 212.643 20H162.643V10C162.643 7.23858 160.405 5 157.643 5C154.882 5 152.643 7.23858 152.643 10V20H112.643V10C112.643 7.23858 110.404 5 107.643 5ZM32.6431 60V165C32.6431 176.046 41.5975 185 52.6431 185H177.393L157.143 165H81.6431H52.6431V136V89V60H78.272C80.0598 60 80.9494 57.8333 79.6774 56.577L44.0482 21.388C43.2692 20.6187 42.0164 20.6187 41.2374 21.3881L5.60887 56.577C4.33688 57.8333 5.22648 60 7.01428 60H32.6431ZM83.0103 115L119.486 151.676L182.01 89L168.01 75L119.486 123.41L97.0103 101L83.0103 115Z"/>
</mask>
<path fill-rule="evenodd" clip-rule="evenodd" d="M107.643 5C104.882 5 102.643 7.23858 102.643 10V20H67.6428L108.143 60H183.643H212.643V89V136V165H187.014C185.226 165 184.337 167.167 185.609 168.423L221.237 203.612C222.016 204.381 223.269 204.381 224.048 203.612L259.677 168.423C260.949 167.167 260.06 165 258.272 165H232.643V60V40C232.643 28.9543 223.689 20 212.643 20H162.643V10C162.643 7.23858 160.405 5 157.643 5C154.882 5 152.643 7.23858 152.643 10V20H112.643V10C112.643 7.23858 110.404 5 107.643 5ZM32.6431 60V165C32.6431 176.046 41.5975 185 52.6431 185H177.393L157.143 165H81.6431H52.6431V136V89V60H78.272C80.0598 60 80.9494 57.8333 79.6774 56.577L44.0482 21.388C43.2692 20.6187 42.0164 20.6187 41.2374 21.3881L5.60887 56.577C4.33688 57.8333 5.22648 60 7.01428 60H32.6431ZM83.0103 115L119.486 151.676L182.01 89L168.01 75L119.486 123.41L97.0103 101L83.0103 115Z" fill="url(#paint0_linear_317_1212)"/>
<path d="M102.643 20V25H107.643V20H102.643ZM67.6428 20V15H55.4648L64.1293 23.5574L67.6428 20ZM108.143 60L104.63 63.5574L106.09 65H108.143V60ZM212.643 60H217.643V55H212.643V60ZM212.643 165V170H217.643V165H212.643ZM185.609 168.423L189.122 164.866L189.122 164.866L185.609 168.423ZM221.237 203.612L217.724 207.169V207.169L221.237 203.612ZM224.048 203.612L227.562 207.169L227.562 207.169L224.048 203.612ZM259.677 168.423L256.164 164.866V164.866L259.677 168.423ZM232.643 165H227.643V170H232.643V165ZM162.643 20H157.643V25H162.643V20ZM152.643 20V25H157.643V20H152.643ZM112.643 20H107.643V25H112.643V20ZM32.6431 60H37.6431V55H32.6431V60ZM177.393 185V190H189.571L180.907 181.443L177.393 185ZM157.143 165L160.657 161.443L159.196 160H157.143V165ZM52.6431 165H47.6431V170H52.6431V165ZM52.6431 60V55H47.6431V60H52.6431ZM79.6774 56.577L83.1908 53.0196H83.1908L79.6774 56.577ZM44.0482 21.388L47.5617 17.8306L47.5617 17.8306L44.0482 21.388ZM41.2374 21.3881L37.7239 17.8306V17.8306L41.2374 21.3881ZM5.60887 56.577L2.09535 53.0196L2.09534 53.0196L5.60887 56.577ZM119.486 151.676L115.941 155.202L119.481 158.762L123.026 155.208L119.486 151.676ZM83.0103 115L79.4747 111.464L75.9489 114.99L79.465 118.526L83.0103 115ZM182.01 89L185.55 92.5312L189.077 88.9957L185.546 85.4645L182.01 89ZM168.01 75L171.546 71.4645L168.014 67.9331L164.479 71.4603L168.01 75ZM119.486 123.41L115.956 126.951L119.487 130.472L123.018 126.95L119.486 123.41ZM97.0103 101L100.541 97.4593L97.005 93.9341L93.4747 97.4645L97.0103 101ZM107.643 10V0C102.12 0 97.6431 4.47715 97.6431 10H107.643ZM107.643 20V10H97.6431V20H107.643ZM67.6428 25H102.643V15H67.6428V25ZM111.657 56.4426L71.1563 16.4426L64.1293 23.5574L104.63 63.5574L111.657 56.4426ZM183.643 55H108.143V65H183.643V55ZM212.643 55H183.643V65H212.643V55ZM217.643 89V60H207.643V89H217.643ZM217.643 136V89H207.643V136H217.643ZM217.643 165V136H207.643V165H217.643ZM187.014 170H212.643V160H187.014V170ZM189.122 164.866C191.03 166.75 189.696 170 187.014 170V160C180.757 160 177.643 167.583 182.095 171.98L189.122 164.866ZM224.751 200.055L189.122 164.866L182.095 171.98L217.724 207.169L224.751 200.055ZM220.535 200.055C221.703 198.9 223.582 198.9 224.751 200.055L217.724 207.169C220.45 209.862 224.835 209.862 227.562 207.169L220.535 200.055ZM256.164 164.866L220.535 200.055L227.562 207.169L263.191 171.98L256.164 164.866ZM258.272 170C255.59 170 254.256 166.75 256.164 164.866L263.191 171.98C267.643 167.583 264.529 160 258.272 160V170ZM232.643 170H258.272V160H232.643V170ZM227.643 60V165H237.643V60H227.643ZM227.643 40V60H237.643V40H227.643ZM212.643 25C220.927 25 227.643 31.7157 227.643 40H237.643C237.643 26.1929 226.45 15 212.643 15V25ZM162.643 25H212.643V15H162.643V25ZM157.643 10V20H167.643V10H157.643ZM157.643 10H167.643C167.643 4.47716 163.166 0 157.643 0V10ZM157.643 10V0C152.12 0 147.643 4.47716 147.643 10H157.643ZM157.643 20V10H147.643V20H157.643ZM112.643 25H152.643V15H112.643V25ZM107.643 10V20H117.643V10H107.643ZM107.643 10H117.643C117.643 4.47715 113.166 0 107.643 0V10ZM37.6431 165V60H27.6431V165H37.6431ZM52.6431 180C44.3589 180 37.6431 173.284 37.6431 165H27.6431C27.6431 178.807 38.836 190 52.6431 190V180ZM177.393 180H52.6431V190H177.393V180ZM153.63 168.557L173.879 188.557L180.907 181.443L160.657 161.443L153.63 168.557ZM81.6431 170H157.143V160H81.6431V170ZM52.6431 170H81.6431V160H52.6431V170ZM47.6431 136V165H57.6431V136H47.6431ZM47.6431 89V136H57.6431V89H47.6431ZM47.6431 60V89H57.6431V60H47.6431ZM78.272 55H52.6431V65H78.272V55ZM76.1639 60.1345C74.2559 58.25 75.5902 55 78.272 55V65C84.5293 65 87.6428 57.4166 83.1908 53.0196L76.1639 60.1345ZM40.5347 24.9455L76.1639 60.1345L83.1908 53.0196L47.5617 17.8306L40.5347 24.9455ZM44.7509 24.9455C43.5825 26.0995 41.7032 26.0995 40.5347 24.9455L47.5617 17.8306C44.8352 15.1378 40.4504 15.1378 37.7239 17.8306L44.7509 24.9455ZM9.12239 60.1344L44.7509 24.9455L37.7239 17.8306L2.09535 53.0196L9.12239 60.1344ZM7.01428 55C9.69599 55 11.0304 58.25 9.12239 60.1344L2.09534 53.0196C-2.3566 57.4167 0.756963 65 7.01428 65V55ZM32.6431 55H7.01428V65H32.6431V55ZM123.032 148.151L86.5555 111.474L79.465 118.526L115.941 155.202L123.032 148.151ZM178.47 85.4688L115.946 148.145L123.026 155.208L185.55 92.5312L178.47 85.4688ZM164.475 78.5355L178.475 92.5355L185.546 85.4645L171.546 71.4645L164.475 78.5355ZM123.018 126.95L171.542 78.5397L164.479 71.4603L115.955 119.87L123.018 126.95ZM93.4799 104.541L115.956 126.951L123.017 119.869L100.541 97.4593L93.4799 104.541ZM86.5458 118.536L100.546 104.536L93.4747 97.4645L79.4747 111.464L86.5458 118.536Z" fill="white" mask="url(#path-3-outside-1_317_1212)"/>
<defs>
<linearGradient id="paint0_linear_317_1212" x1="133.01" y1="41" x2="133.01" y2="174.5" gradientUnits="userSpaceOnUse">
<stop stop-color="#20BF86"/>
<stop offset="1" stop-color="#02225B"/>
</linearGradient>
</defs>
</svg>
